<svg xmlns="http://www.w3.org/2000/svg" viewBox="0 0 203.14 156.69"><defs><style>.cls-1{fill:#000;}</style></defs><g id="Lager_2" data-name="Lager 2"><g id="Layer_1" data-name="Layer 1"><path class="cls-1" d="M44.63,148.07a5,5,0,1,1,5,5.25,4.92,4.92,0,0,1-5-5.25m13.29,0v-8.21H54.35v2a6.22,6.22,0,0,0-5.19-2.41c-4.6,0-8.2,3.61-8.2,8.62s3.6,8.62,8.2,8.62a6.22,6.22,0,0,0,5.19-2.41v2h3.57Zm120.57,0a5,5,0,1,1,5,5.25,4.92,4.92,0,0,1-5-5.25m13.29,0v-14.8h-3.57v8.59a6.21,6.21,0,0,0-5.18-2.41c-4.6,0-8.21,3.61-8.21,8.62s3.61,8.62,8.21,8.62a6.21,6.21,0,0,0,5.18-2.41v2h3.57Zm-89.57-5.42c2.3,0,3.77,1.44,4.15,4H97.84c.39-2.37,1.82-4,4.37-4m.07-3.2c-4.81,0-8.18,3.5-8.18,8.62s3.5,8.62,8.42,8.62a10,10,0,0,0,6.72-2.3l-1.74-2.65a7.85,7.85,0,0,1-4.78,1.72,4.56,4.56,0,0,1-4.91-4H110c0-.44.07-.89.07-1.37,0-5.12-3.2-8.62-7.79-8.62m43.08,8.62a5,5,0,1,1,5,5.25,4.92,4.92,0,0,1-5-5.25m13.29,0v-8.21h-3.57v2a6.23,6.23,0,0,0-5.18-2.41c-4.61,0-8.21,3.61-8.21,8.62s3.6,8.62,8.21,8.62a6.23,6.23,0,0,0,5.18-2.41v2h3.57Zm-33.44,0c0,5,3.47,8.62,8.76,8.62a8.59,8.59,0,0,0,5.9-2l-1.72-2.88a7.2,7.2,0,0,1-4.29,1.47,5.26,5.26,0,0,1,0-10.5,7.2,7.2,0,0,1,4.29,1.47l1.72-2.88a8.59,8.59,0,0,0-5.9-2c-5.29,0-8.76,3.64-8.76,8.62m46-8.62a4.83,4.83,0,0,0-4.32,2.41v-2h-3.54v16.41h3.57v-9.2c0-2.71,1.17-4.22,3.5-4.22a5.82,5.82,0,0,1,2.24.41l1.1-3.36a7.63,7.63,0,0,0-2.55-.45m-95.65,1.72a12.26,12.26,0,0,0-6.69-1.72c-4.16,0-6.83,2-6.83,5.26,0,2.67,2,4.32,5.66,4.84l1.69.24c2,.27,2.88.79,2.88,1.71,0,1.27-1.31,2-3.74,2a8.71,8.71,0,0,1-5.46-1.72l-1.68,2.78a11.82,11.82,0,0,0,7.1,2.13c4.74,0,7.49-2.24,7.49-5.36,0-2.88-2.16-4.39-5.74-4.91l-1.68-.24c-1.54-.21-2.78-.51-2.78-1.61s1.17-1.92,3.12-1.92a10.65,10.65,0,0,1,5.12,1.4Zm46-1.72a4.81,4.81,0,0,0-4.32,2.41v-2h-3.54v16.41h3.57v-9.2c0-2.71,1.17-4.22,3.5-4.22a5.82,5.82,0,0,1,2.24.41l1.1-3.36a7.63,7.63,0,0,0-2.55-.45m-30.45.41H85.32v-5H81.71v5H78.38v3.27h3.33v7.48c0,3.81,1.48,6.08,5.7,6.08a8.35,8.35,0,0,0,4.46-1.27l-1-3.06a6.56,6.56,0,0,1-3.16.93c-1.78,0-2.36-1.1-2.36-2.75v-7.41h5.83ZM37.8,156.27V146a6.11,6.11,0,0,0-6.46-6.52,6.38,6.38,0,0,0-5.77,2.92,6,6,0,0,0-5.42-2.92,5.43,5.43,0,0,0-4.8,2.44v-2H11.77v16.41h3.61v-9.09c0-2.85,1.58-4.36,4-4.36S23,144.36,23,147.14v9.13h3.6v-9.09c0-2.85,1.65-4.36,4-4.36s3.6,1.54,3.6,4.32v9.13Z"/><path class="cls-1" d="M139.74,0a62.75,62.75,0,0,0-38.17,12.79A62.75,62.75,0,0,0,63.4,0a63.41,63.41,0,0,0,0,126.82A62.75,62.75,0,0,0,101.57,114a62.75,62.75,0,0,0,38.17,12.79A63.41,63.41,0,0,0,139.74,0ZM101.57,109.9a60.16,60.16,0,0,1,0-93,60.16,60.16,0,0,1,0,93ZM3.2,63.41A60.28,60.28,0,0,1,63.4,3.2,59.52,59.52,0,0,1,99,14.82h0l.06,0A63.41,63.41,0,0,0,99,112L99,112h0A59.52,59.52,0,0,1,63.4,123.62,60.28,60.28,0,0,1,3.2,63.41Zm136.54,60.21A59.54,59.54,0,0,1,104.18,112l-.05,0a63.41,63.41,0,0,0,0-97.1l.05,0A59.54,59.54,0,0,1,139.74,3.2a60.21,60.21,0,0,1,0,120.42Z"/></g></g></svg>