<svg xmlns="http://www.w3.org/2000/svg" viewBox="0 0 261.6 69.15"><defs><style>.cls-1{fill:#fff;}.cls-2{fill:none;stroke:#fff;stroke-miterlimit:10;stroke-width:3.2px;}</style></defs><g id="Lager_2" data-name="Lager 2"><g id="Layer_1" data-name="Layer 1"><path id="path14519" class="cls-1" d="M179.9,32.16h-6.8a2,2,0,0,0-1.63.87l-9.39,13.83-4-13.29a2,2,0,0,0-1.89-1.41h-6.69a1.18,1.18,0,0,0-1.12,1.56l7.5,22-7.05,10a1.18,1.18,0,0,0,1,1.87h6.8a2,2,0,0,0,1.62-.85L180.87,34a1.18,1.18,0,0,0-1-1.86M134.38,45.35a7.56,7.56,0,0,1-7.65,6.47,5.25,5.25,0,0,1-5.61-6.59,7.59,7.59,0,0,1,7.59-6.52,5.7,5.7,0,0,1,4.52,1.85,5.82,5.82,0,0,1,1.15,4.79m9.44-13.19h-6.77a1.19,1.19,0,0,0-1.17,1l-.3,1.89-.47-.68c-1.47-2.13-4.74-2.84-8-2.84-7.49,0-13.88,5.67-15.13,13.62a12.82,12.82,0,0,0,2.53,10.41C116.57,58,119.52,59,123,59a13,13,0,0,0,9.38-3.88l-.3,1.88a1.18,1.18,0,0,0,1.16,1.37h6.1a2,2,0,0,0,1.94-1.66L145,33.53a1.19,1.19,0,0,0-1.17-1.37m-40.65.17c-.78,5.08-4.66,5.08-8.41,5.08H92.63l1.5-9.49a1.16,1.16,0,0,1,1.16-1h1c2.55,0,5,0,6.21,1.45.74.87,1,2.16.69,3.95m-1.64-13.25H87.38a2,2,0,0,0-1.94,1.66L79.72,57a1.19,1.19,0,0,0,1.17,1.37h6.75a2,2,0,0,0,1.94-1.66l1.55-9.79a2,2,0,0,1,1.94-1.66h4.48c9.32,0,14.69-4.51,16.1-13.45.63-3.91,0-7-1.8-9.13-2-2.36-5.58-3.61-10.32-3.61"/><path id="path14523" class="cls-1" d="M252.72,20.07l-5.81,37a1.18,1.18,0,0,0,1.17,1.36h5.84a2,2,0,0,0,1.94-1.66l5.72-36.28a1.16,1.16,0,0,0-1.16-1.36h-6.53a1.17,1.17,0,0,0-1.17,1M235.29,45.35a7.54,7.54,0,0,1-7.64,6.47A5.26,5.26,0,0,1,222,45.23a7.6,7.6,0,0,1,7.6-6.52,5.69,5.69,0,0,1,4.51,1.85,5.82,5.82,0,0,1,1.15,4.79m9.44-13.19H238a1.19,1.19,0,0,0-1.17,1l-.29,1.89-.48-.68c-1.46-2.13-4.74-2.84-8-2.84-7.49,0-13.88,5.67-15.12,13.62a12.78,12.78,0,0,0,2.52,10.41C217.49,58,220.44,59,224,59a13,13,0,0,0,9.38-3.88L233,57a1.18,1.18,0,0,0,1.16,1.37h6.1a2,2,0,0,0,2-1.66l3.66-23.19a1.19,1.19,0,0,0-1.17-1.37m-40.65.17c-.78,5.08-4.65,5.08-8.41,5.08h-2.13l1.5-9.49a1.17,1.17,0,0,1,1.16-1h1c2.55,0,5,0,6.21,1.45.74.87,1,2.16.69,3.95m-1.63-13.25H188.3a2,2,0,0,0-2,1.66L180.63,57a1.19,1.19,0,0,0,1.17,1.37h7.26a1.39,1.39,0,0,0,1.36-1.16L192,46.93A2,2,0,0,1,194,45.27h4.48c9.32,0,14.7-4.51,16.1-13.45.63-3.91,0-7-1.8-9.13-2-2.36-5.58-3.61-10.31-3.61"/><path id="path14531" class="cls-2" d="M22.61,18.42A2.54,2.54,0,0,1,24,16.51a2.61,2.61,0,0,1,1.11-.25H41.21a33.79,33.79,0,0,1,5.3.38c.46.08.91.16,1.35.26s.86.21,1.27.33l.61.19a13.1,13.1,0,0,1,2.22.94c.81-5.14,0-8.63-2.78-11.79-3-3.48-8.57-5-15.63-5H13.05a2.92,2.92,0,0,0-2.89,2.48L1.62,58.19a1.76,1.76,0,0,0,1.74,2H16l3.18-20.16,3.42-21.65Z"/><path id="path14535" class="cls-2" d="M52,18.35h0c-.06.4-.13.79-.21,1.2C49.05,33.43,39.8,38.23,28,38.23H22a2.93,2.93,0,0,0-2.89,2.48L16,60.23l-.87,5.54a1.54,1.54,0,0,0,1.52,1.78H27.32a2.57,2.57,0,0,0,2.54-2.17l.1-.54L32,52.1l.13-.71a2.57,2.57,0,0,1,2.54-2.16h1.59C46.56,49.23,54.65,45,57,32.89c1-5.07.47-9.31-2.14-12.28A10.19,10.19,0,0,0,52,18.35"/><path id="path14539" class="cls-2" d="M49.14,17.23c-.42-.12-.84-.23-1.28-.33s-.89-.18-1.35-.26a33.79,33.79,0,0,0-5.3-.38H25.14a2.58,2.58,0,0,0-1.11.25,2.53,2.53,0,0,0-1.42,1.91L19.19,40.07l-.1.64A2.93,2.93,0,0,1,22,38.23h6c11.81,0,21.06-4.8,23.76-18.68.08-.41.15-.8.21-1.2a14,14,0,0,0-2.22-.93l-.6-.19"/></g></g></svg>