<svg xmlns="http://www.w3.org/2000/svg" viewBox="0 0 230 74.27"><defs><style>.cls-1{fill:#fff;}</style></defs><g id="Lager_2" data-name="Lager 2"><g id="Layer_1" data-name="Layer 1"><path class="cls-1" d="M119,23.74c-.13,10.35,9.22,16.12,16.27,19.56,7.23,3.52,9.66,5.78,9.64,8.93-.06,4.82-5.78,6.94-11.13,7-9.34.14-14.77-2.52-19.08-4.54l-3.37,15.74c4.33,2,12.35,3.74,20.67,3.81,19.52,0,32.29-9.63,32.36-24.57.07-19-26.23-20-26.05-28.48.06-2.57,2.51-5.31,7.89-6a35,35,0,0,1,18.32,3.21l3.27-15.23A49.84,49.84,0,0,0,150.35,0C132,0,119.05,9.77,119,23.74M199.13,1.31a8.47,8.47,0,0,0-7.91,5.27L163.34,73.15h19.5l3.88-10.72h23.84l2.25,10.72H230L215,1.31H199.13m2.73,19.41,5.62,27H192.07l9.79-27M95.3,1.31,79.93,73.15H98.51L113.88,1.31H95.3m-27.49,0L48.46,50.21,40.64,8.63a8.67,8.67,0,0,0-8.57-7.32H.44L0,3.4C6.49,4.81,13.87,7.08,18.34,9.51c2.73,1.49,3.51,2.78,4.41,6.31L37.57,73.15H57.21L87.33,1.31H67.81"/></g></g></svg>