<svg id="visual" viewBox="0 0 1920 1080" width="1920" height="1080" xmlns="http://www.w3.org/2000/svg" xmlns:xlink="http://www.w3.org/1999/xlink" version="1.1"><rect x="0" y="0" width="1920" height="1080" fill="#9BE5AA"></rect><path d="M0 675L45.7 672.7C91.3 670.3 182.7 665.7 274.2 663.2C365.7 660.7 457.3 660.3 548.8 663.2C640.3 666 731.7 672 823 694.7C914.3 717.3 1005.7 756.7 1097 760.5C1188.3 764.3 1279.7 732.7 1371.2 721.2C1462.7 709.7 1554.3 718.3 1645.8 734.3C1737.3 750.3 1828.7 773.7 1874.3 785.3L1920 797L1920 1081L1874.3 1081C1828.7 1081 1737.3 1081 1645.8 1081C1554.3 1081 1462.7 1081 1371.2 1081C1279.7 1081 1188.3 1081 1097 1081C1005.7 1081 914.3 1081 823 1081C731.7 1081 640.3 1081 548.8 1081C457.3 1081 365.7 1081 274.2 1081C182.7 1081 91.3 1081 45.7 1081L0 1081Z" fill="#b5e6bf"></path><path d="M0 828L45.7 809.7C91.3 791.3 182.7 754.7 274.2 742.2C365.7 729.7 457.3 741.3 548.8 764.7C640.3 788 731.7 823 823 817.5C914.3 812 1005.7 766 1097 750.8C1188.3 735.7 1279.7 751.3 1371.2 752.3C1462.7 753.3 1554.3 739.7 1645.8 755.7C1737.3 771.7 1828.7 817.3 1874.3 840.2L1920 863L1920 1081L1874.3 1081C1828.7 1081 1737.3 1081 1645.8 1081C1554.3 1081 1462.7 1081 1371.2 1081C1279.7 1081 1188.3 1081 1097 1081C1005.7 1081 914.3 1081 823 1081C731.7 1081 640.3 1081 548.8 1081C457.3 1081 365.7 1081 274.2 1081C182.7 1081 91.3 1081 45.7 1081L0 1081Z" fill="#c8edcf"></path><path d="M0 825L45.7 836C91.3 847 182.7 869 274.2 879.7C365.7 890.3 457.3 889.7 548.8 886.5C640.3 883.3 731.7 877.7 823 865.7C914.3 853.7 1005.7 835.3 1097 842C1188.3 848.7 1279.7 880.3 1371.2 897.5C1462.7 914.7 1554.3 917.3 1645.8 903.2C1737.3 889 1828.7 858 1874.3 842.5L1920 827L1920 1081L1874.3 1081C1828.7 1081 1737.3 1081 1645.8 1081C1554.3 1081 1462.7 1081 1371.2 1081C1279.7 1081 1188.3 1081 1097 1081C1005.7 1081 914.3 1081 823 1081C731.7 1081 640.3 1081 548.8 1081C457.3 1081 365.7 1081 274.2 1081C182.7 1081 91.3 1081 45.7 1081L0 1081Z" fill="#daf3df"></path><path d="M0 891L45.7 900.3C91.3 909.7 182.7 928.3 274.2 942.7C365.7 957 457.3 967 548.8 954C640.3 941 731.7 905 823 888C914.3 871 1005.7 873 1097 886.2C1188.3 899.3 1279.7 923.7 1371.2 934.8C1462.7 946 1554.3 944 1645.8 943.2C1737.3 942.3 1828.7 942.7 1874.3 942.8L1920 943L1920 1081L1874.3 1081C1828.7 1081 1737.3 1081 1645.8 1081C1554.3 1081 1462.7 1081 1371.2 1081C1279.7 1081 1188.3 1081 1097 1081C1005.7 1081 914.3 1081 823 1081C731.7 1081 640.3 1081 548.8 1081C457.3 1081 365.7 1081 274.2 1081C182.7 1081 91.3 1081 45.7 1081L0 1081Z" fill="#edf9ef"></path><path d="M0 991L45.7 996.3C91.3 1001.7 182.7 1012.3 274.2 1015.5C365.7 1018.7 457.3 1014.3 548.8 1013.5C640.3 1012.7 731.7 1015.3 823 1009.8C914.3 1004.3 1005.7 990.7 1097 982.3C1188.3 974 1279.7 971 1371.2 971.5C1462.7 972 1554.3 976 1645.8 979C1737.3 982 1828.7 984 1874.3 985L1920 986L1920 1081L1874.3 1081C1828.7 1081 1737.3 1081 1645.8 1081C1554.3 1081 1462.7 1081 1371.2 1081C1279.7 1081 1188.3 1081 1097 1081C1005.7 1081 914.3 1081 823 1081C731.7 1081 640.3 1081 548.8 1081C457.3 1081 365.7 1081 274.2 1081C182.7 1081 91.3 1081 45.7 1081L0 1081Z" fill="#ffffff"></path></svg>